<svg xmlns="http://www.w3.org/2000/svg" viewBox="0 0 64 64" width="64" height="64">
  <!-- Miner NPC - World 2: Content Caverns -->
  <!-- Sturdy miner with helmet and pickaxe -->

  <!-- Body/overalls -->
  <rect x="20" y="32" width="24" height="24" fill="#4a4a4a"/>
  <rect x="24" y="32" width="16" height="4" fill="#8b4513"/>

  <!-- Suspenders -->
  <rect x="24" y="36" width="4" height="16" fill="#d4a574"/>
  <rect x="36" y="36" width="4" height="16" fill="#d4a574"/>

  <!-- Arms -->
  <rect x="14" y="34" width="6" height="16" fill="#f5deb3"/>
  <rect x="44" y="34" width="6" height="16" fill="#f5deb3"/>

  <!-- Head -->
  <rect x="22" y="16" width="20" height="16" fill="#f5deb3"/>

  <!-- Eyes -->
  <rect x="26" y="22" width="4" height="4" fill="#2c3e50"/>
  <rect x="34" y="22" width="4" height="4" fill="#2c3e50"/>

  <!-- Smile -->
  <rect x="28" y="28" width="8" height="2" fill="#c0392b"/>

  <!-- Helmet -->
  <rect x="20" y="10" width="24" height="8" fill="#f1c40f"/>
  <rect x="18" y="14" width="4" height="6" fill="#f1c40f"/>
  <rect x="42" y="14" width="4" height="6" fill="#f1c40f"/>

  <!-- Helmet light -->
  <rect x="30" y="8" width="8" height="6" fill="#e8e8e8"/>
  <rect x="32" y="6" width="4" height="4" fill="#ffff00"/>

  <!-- Pickaxe -->
  <rect x="8" y="28" width="4" height="24" fill="#8b4513"/>
  <rect x="4" y="24" width="12" height="4" fill="#7f8c8d"/>
  <rect x="2" y="22" width="6" height="6" fill="#95a5a6"/>

  <!-- Boots -->
  <rect x="20" y="56" width="10" height="8" fill="#5d4037"/>
  <rect x="34" y="56" width="10" height="8" fill="#5d4037"/>
</svg>