<svg xmlns="http://www.w3.org/2000/svg" viewBox="0 0 64 64" width="64" height="64">
  <!-- Elder NPC - World 1: Tutorial Village -->
  <!-- Wise old sage with staff and robe -->

  <!-- Robe body -->
  <rect x="20" y="32" width="24" height="28" fill="#4a3c6e"/>
  <rect x="18" y="36" width="4" height="20" fill="#4a3c6e"/>
  <rect x="42" y="36" width="4" height="20" fill="#4a3c6e"/>

  <!-- Robe trim -->
  <rect x="20" y="56" width="24" height="4" fill="#6b5b95"/>

  <!-- Head -->
  <rect x="24" y="16" width="16" height="16" fill="#f5deb3"/>

  <!-- Eyes -->
  <rect x="27" y="22" width="3" height="3" fill="#2c3e50"/>
  <rect x="34" y="22" width="3" height="3" fill="#2c3e50"/>

  <!-- Beard (white/gray) -->
  <rect x="26" y="28" width="12" height="4" fill="#e8e8e8"/>
  <rect x="28" y="32" width="8" height="6" fill="#e8e8e8"/>
  <rect x="30" y="38" width="4" height="4" fill="#d3d3d3"/>

  <!-- Hood -->
  <rect x="22" y="12" width="20" height="6" fill="#5d4e7a"/>
  <rect x="20" y="14" width="4" height="18" fill="#5d4e7a"/>
  <rect x="40" y="14" width="4" height="18" fill="#5d4e7a"/>

  <!-- Staff -->
  <rect x="48" y="20" width="4" height="40" fill="#8b4513"/>
  <rect x="46" y="16" width="8" height="6" fill="#ffd700"/>
  <rect x="48" y="12" width="4" height="4" fill="#00d4ff"/>

  <!-- Feet -->
  <rect x="22" y="60" width="8" height="4" fill="#3d2f5c"/>
  <rect x="34" y="60" width="8" height="4" fill="#3d2f5c"/>
</svg>