<svg xmlns="http://www.w3.org/2000/svg" viewBox="0 0 64 64" width="64" height="64">
  <!-- Guard NPC - World 4: Upload Fortress -->
  <!-- Armored guard with shield -->

  <!-- Body armor -->
  <rect x="20" y="30" width="24" height="26" fill="#5d6d7e"/>
  <rect x="22" y="32" width="20" height="4" fill="#85929e"/>

  <!-- Armor details -->
  <rect x="28" y="38" width="8" height="12" fill="#707b7c"/>
  <rect x="30" y="40" width="4" height="8" fill="#85929e"/>

  <!-- Shoulders -->
  <rect x="14" y="30" width="8" height="8" fill="#5d6d7e"/>
  <rect x="42" y="30" width="8" height="8" fill="#5d6d7e"/>

  <!-- Arms -->
  <rect x="14" y="38" width="6" height="14" fill="#707b7c"/>
  <rect x="44" y="38" width="6" height="14" fill="#707b7c"/>

  <!-- Hands -->
  <rect x="14" y="50" width="6" height="4" fill="#f5deb3"/>
  <rect x="44" y="50" width="6" height="4" fill="#f5deb3"/>

  <!-- Head -->
  <rect x="24" y="14" width="16" height="14" fill="#f5deb3"/>

  <!-- Helmet -->
  <rect x="22" y="8" width="20" height="10" fill="#5d6d7e"/>
  <rect x="20" y="12" width="4" height="10" fill="#5d6d7e"/>
  <rect x="40" y="12" width="4" height="10" fill="#5d6d7e"/>

  <!-- Helmet visor -->
  <rect x="26" y="16" width="12" height="4" fill="#2c3e50"/>

  <!-- Helmet plume -->
  <rect x="30" y="2" width="4" height="8" fill="#e74c3c"/>
  <rect x="28" y="4" width="2" height="4" fill="#c0392b"/>
  <rect x="34" y="4" width="2" height="4" fill="#c0392b"/>

  <!-- Eyes through visor -->
  <rect x="28" y="17" width="2" height="2" fill="#3498db"/>
  <rect x="34" y="17" width="2" height="2" fill="#3498db"/>

  <!-- Shield -->
  <rect x="2" y="34" width="14" height="20" fill="#3498db"/>
  <rect x="4" y="36" width="10" height="16" fill="#2980b9"/>
  <rect x="6" y="40" width="6" height="8" fill="#f1c40f"/>
  <rect x="8" y="42" width="2" height="4" fill="#e74c3c"/>

  <!-- Legs -->
  <rect x="22" y="56" width="8" height="8" fill="#5d6d7e"/>
  <rect x="34" y="56" width="8" height="8" fill="#5d6d7e"/>

  <!-- Boots -->
  <rect x="20" y="60" width="10" height="4" fill="#4a4a4a"/>
  <rect x="34" y="60" width="10" height="4" fill="#4a4a4a"/>
</svg>